<?xml version="1.0" encoding="utf-8"?>
<!-- Generator: Adobe Illustrator 23.1.1, SVG Export Plug-In . SVG Version: 6.00 Build 0)  -->
<svg version="1.1" id="Layer_1" xmlns="http://www.w3.org/2000/svg" xmlns:xlink="http://www.w3.org/1999/xlink" x="0px" y="0px"
	 viewBox="0 0 674.64 199.03" style="enable-background:new 0 0 674.64 199.03;" xml:space="preserve">
<style type="text/css">
	.st0{fill:#FFFFFF;}
</style>
<g>
	<g>
		<path class="st0" d="M55.12,99.36c0-25.76,18.24-44,44.32-44c26.08,0,44.48,18.24,44.48,44c0,25.92-18.4,44.32-44.48,44.32
			C73.36,143.68,55.12,125.28,55.12,99.36z M120.08,99.36c0-13.76-8.48-23.52-20.64-23.52c-12,0-20.48,9.76-20.48,23.52
			c0,13.92,8.48,23.84,20.48,23.84C111.6,123.2,120.08,113.28,120.08,99.36z"/>
	</g>
	<g>
		<path class="st0" d="M156.71,57.91h23.68v12c5.6-8.96,14.88-14.56,28.16-14.56c13.28,0,22.08,5.28,26.72,15.84
			c8.16-11.36,19.52-15.84,32.32-15.84c20.8,0,31.04,13.28,31.04,38.72v47.04h-24.16V95.36c0-12.16-6.08-19.52-16.32-19.52
			c-11.52,0-18.72,8.96-18.72,22.72v42.56h-24V95.36c0-12.16-6.08-19.52-16.32-19.52c-11.52,0-18.72,8.96-18.72,22.72v42.56h-23.68
			V57.91z"/>
	</g>
	<g>
		<path class="st0" d="M315.11,57.91h23.68V68.8c5.76-8.48,14.88-13.44,28-13.44c20.96,0,35.84,18.4,35.84,44.48
			c0,25.6-14.88,43.84-35.84,43.84c-13.12,0-22.24-4.96-28-13.44v42.88h-23.68V57.91z M378.79,99.68c0-13.92-8.32-23.84-20.16-23.84
			c-11.68,0-20,9.92-20,23.84c0,13.76,8.32,23.52,20,23.52C370.47,123.2,378.79,113.44,378.79,99.68z"/>
	</g>
	<g>
		<path class="st0" d="M412.23,118.88c0-15.04,13.28-24.64,36.8-27.36l19.04-2.24v-2.56c0.16-6.88-4.8-10.88-14.72-10.88
			c-9.12,0-14.4,4.16-14.4,11.36h-23.36c0-20,14.08-31.84,38.08-31.84c24.32,0,38.08,11.68,38.08,31.36v28.16
			c0,6.88,1.28,9.28,7.84,8.64v16.96c-18.4,4.16-27.52-2.24-29.6-13.6c-4.16,10.4-13.12,16.8-27.36,16.8
			C421.19,143.68,412.23,131.52,412.23,118.88z M467.11,106.4l-8.16,0.8c-15.04,1.92-22.88,4.32-22.88,10.4
			c0,5.12,4,8.48,11.36,8.48C458.79,126.08,465.67,117.6,467.11,106.4z"/>
	</g>
	<g>
		<path class="st0" d="M506.95,114.56h23.52c0.32,8,7.52,12.64,17.44,12.64c9.12,0,14.4-4.48,14.4-9.44
			c0-16.96-53.28,0.16-53.28-35.04c0-16.8,14.72-27.36,39.2-27.36c22.24,0,36.32,11.2,37.76,29.6h-23.36
			c-0.48-8.16-6.24-13.12-15.84-13.12c-8.8,0-13.92,4-13.92,9.92c0,16.16,53.12-0.96,53.12,35.2c0,16.48-14.56,26.72-38.72,26.72
			C522.63,143.68,507.43,132.8,506.95,114.56z"/>
	</g>
	<g>
		<path class="st0" d="M595.59,114.56h23.52c0.32,8,7.52,12.64,17.44,12.64c9.12,0,14.4-4.48,14.4-9.44
			c0-16.96-53.28,0.16-53.28-35.04c0-16.8,14.72-27.36,39.2-27.36c22.24,0,36.32,11.2,37.76,29.6h-23.36
			c-0.48-8.16-6.24-13.12-15.84-13.12c-8.8,0-13.92,4-13.92,9.92c0,16.16,53.12-0.96,53.12,35.2c0,16.48-14.56,26.72-38.72,26.72
			C611.27,143.68,596.07,132.8,595.59,114.56z"/>
	</g>
	<g>
		<path class="st0" d="M99.52,199.03c-26.58,0-51.57-10.35-70.37-29.15C10.35,151.09,0,126.1,0,99.52s10.35-51.57,29.15-70.37
			C47.94,10.35,72.93,0,99.52,0c18.03,0,35.69,4.87,51.08,14.1c1.54,0.92,3.08,1.9,4.58,2.92l-14.56,21.54
			c-1.11-0.75-2.24-1.47-3.38-2.15C125.88,29.6,112.84,26,99.52,26c-19.64,0-38.1,7.65-51.98,21.53C33.65,61.42,26,79.88,26,99.52
			s7.65,38.1,21.53,51.98c13.89,13.89,32.35,21.53,51.98,21.53c14.74,0,28.95-4.34,41.11-12.56l14.56,21.54
			C138.71,193.15,119.46,199.03,99.52,199.03z"/>
	</g>
	<g>
		<path class="st0" d="M147.9,171.25"/>
	</g>
	<g>
		<path class="st0" d="M160.69,160.69"/>
	</g>
</g>
</svg>
