<svg id="Layer_1" data-name="Layer 1" xmlns="http://www.w3.org/2000/svg" viewBox="0 0 674.64 199.03"><defs><style>.cls-1{fill:#ff0058;}</style></defs><path class="cls-1" d="M55.12,99.36c0-25.76,18.24-44,44.32-44s44.48,18.24,44.48,44c0,25.92-18.4,44.32-44.48,44.32S55.12,125.28,55.12,99.36Zm65,0c0-13.76-8.48-23.52-20.64-23.52C87.44,75.84,79,85.6,79,99.36c0,13.92,8.48,23.84,20.48,23.84C111.6,123.2,120.08,113.28,120.08,99.36Z"/><path class="cls-1" d="M156.71,57.91h23.68v12c5.6-9,14.88-14.56,28.17-14.56s22.08,5.28,26.72,15.84c8.16-11.36,19.52-15.84,32.32-15.84,20.8,0,31,13.28,31,38.72v47H274.48V95.36c0-12.16-6.08-19.52-16.32-19.52-11.52,0-18.72,9-18.72,22.72v42.56h-24V95.36c0-12.16-6.08-19.52-16.33-19.52-11.52,0-18.72,9-18.72,22.72v42.56H156.71Z"/><path class="cls-1" d="M315.11,57.91h23.68V68.8c5.76-8.48,14.88-13.44,28-13.44,21,0,35.84,18.4,35.84,44.48,0,25.6-14.88,43.84-35.84,43.84-13.12,0-22.24-5-28-13.44v42.88H315.11Zm63.68,41.77c0-13.92-8.32-23.84-20.16-23.84-11.68,0-20,9.92-20,23.84,0,13.76,8.32,23.52,20,23.52C370.47,123.2,378.79,113.44,378.79,99.68Z"/><path class="cls-1" d="M412.23,118.88c0-15,13.28-24.64,36.8-27.36l19-2.24V86.72c.16-6.88-4.8-10.88-14.72-10.88C444.23,75.84,439,80,439,87.2H415.59c0-20,14.08-31.84,38.08-31.84,24.32,0,38.08,11.68,38.08,31.36v28.16c0,6.88,1.28,9.28,7.84,8.64v17c-18.4,4.16-27.52-2.24-29.6-13.6-4.16,10.4-13.12,16.8-27.36,16.8C421.19,143.68,412.23,131.52,412.23,118.88Zm54.88-12.48-8.16.8c-15,1.92-22.88,4.32-22.88,10.4,0,5.12,4,8.48,11.36,8.48C458.79,126.08,465.67,117.6,467.11,106.4Z"/><path class="cls-1" d="M507,114.56h23.52c.32,8,7.52,12.64,17.44,12.64,9.12,0,14.4-4.48,14.4-9.44,0-17-53.28.16-53.28-35,0-16.8,14.72-27.36,39.2-27.36,22.24,0,36.32,11.2,37.76,29.6H562.63c-.48-8.16-6.24-13.12-15.84-13.12-8.8,0-13.92,4-13.92,9.92,0,16.16,53.12-1,53.12,35.2,0,16.48-14.56,26.72-38.72,26.72C522.63,143.68,507.43,132.8,507,114.56Z"/><path class="cls-1" d="M595.59,114.56h23.52c.32,8,7.52,12.64,17.44,12.64,9.13,0,14.41-4.48,14.41-9.44,0-17-53.29.16-53.29-35,0-16.8,14.72-27.36,39.2-27.36,22.25,0,36.33,11.2,37.77,29.6H651.28c-.48-8.16-6.25-13.12-15.85-13.12-8.8,0-13.92,4-13.92,9.92,0,16.16,53.13-1,53.13,35.2,0,16.48-14.56,26.72-38.73,26.72C611.27,143.68,596.07,132.8,595.59,114.56Z"/><path class="cls-1" d="M99.52,199A99.51,99.51,0,0,1,29.15,29.15a99.54,99.54,0,0,1,121.45-15c1.54.92,3.08,1.9,4.58,2.91L140.62,38.55c-1.11-.74-2.24-1.47-3.38-2.15a73.52,73.52,0,1,0,3.38,124.08L155.18,182A99,99,0,0,1,99.52,199Z"/></svg>