<svg id="Layer_1" data-name="Layer 1" xmlns="http://www.w3.org/2000/svg" viewBox="0 0 663.18 497.07"><defs><style>.cls-1{fill:#e01344;}.cls-2{fill:#fff;}</style></defs><title>LT_Logo-update</title><polygon class="cls-1" points="498.02 0 331.41 166.62 165.16 0.37 0 165.52 331.55 497.07 496.71 331.92 496.57 331.77 663.18 165.16 498.02 0"/><path class="cls-2" d="M230.35,331.36l8.6-8.61,36.87,36.87L296.41,339l7.47,7.48L274.69,375.7Z"/><path class="cls-2" d="M317.2,294.29l19.45,19.45-7.73,7.73-4.62-4.63c1.33,4.88-.5,10.77-4.43,14.69-6.27,6.27-14.69,6.59-20.14,1.14-6.28-6.27-4.88-14.38,3.6-24.89l5.38-6.52-.31-.31c-3.61-3.62-8.3-3.37-12.16.5-3.48,3.48-3.79,8.11-.76,11.9l-8.36,5.83c-5.32-7.35-3.74-17,3-23.81C298.52,287,308.71,285.8,317.2,294.29Zm-2.09,13.37-.7-.7L309,313.74c-3.73,4.75-4.11,8.67-1.83,10.95s5.64,2.1,8.55-.82C320.69,318.93,319.8,312.34,315.11,307.66Z"/><path class="cls-2" d="M346.67,296.37l3.68,3.67-8,8-44.84-44.84,8-8L322,271.67c-.57-4.25,1.2-9.31,5.19-13.3,9.44-9.44,21.79-8.37,31.54,1.38s10.84,22.12,1.27,31.68C356.05,295.36,350.79,297.33,346.67,296.37Zm4.12-28.7c-5.77-5.76-12.93-6.2-18-1.14s-4.68,12.29,1.08,18.06,12.92,6.21,18.05,1.07S356.56,273.44,350.79,267.67Z"/><path class="cls-2" d="M362.86,255.6c-9.5-9.5-9.5-23.44.2-33.13s23.62-9.69,33.12-.19,9.5,23.44-.18,33.13S372.37,265.1,362.86,255.6Zm25.28-25.28c-5.7-5.7-13.05-6.08-18.18-.95s-4.75,12.48,1,18.18,13,6.14,18.18.95S393.84,236,388.14,230.32Z"/><path class="cls-2" d="M447.79,202.6l-8,8L435,205.77a16.85,16.85,0,0,1-4.81,15.46c-6.9,6.9-16.22,7.09-23.18.12l-20.9-20.9,8-8,19,19c3.74,3.74,8.67,4,12.42.25,4.93-4.93,3.54-11.89-3.62-19.05l-14-14,8-8Z"/><path class="cls-2" d="M446.34,154.14c-4.49,4.49-4.81,12.28,4.69,21.78l11.72,11.72-8,8-31.92-31.92,8-8,5.82,5.82a15.8,15.8,0,0,1,3.29-16,17.35,17.35,0,0,1,4-3l7.22,8.24A14.75,14.75,0,0,0,446.34,154.14Z"/><path class="cls-2" d="M308,383.07l-13.4,13.4L287.15,389l35.43-35.44L330,361l-13.4,13.4,37,37L345,420.08Z"/><path class="cls-2" d="M346.89,386.19c-9.52-9.52-9.52-23.49.19-33.2s23.69-9.72,33.21-.2,9.53,23.5-.19,33.22S356.42,395.72,346.89,386.19Zm25.33-25.33c-5.71-5.72-13.08-6.1-18.22-.95s-4.76,12.5,1,18.21,13,6.17,18.21,1S377.94,366.57,372.22,360.86Z"/><path class="cls-2" d="M400.15,300.94l30,30c8.44,8.44,7.74,20.44-1.78,30-7.49,7.48-17.52,9.52-24.58,4.63l6.23-8.63c3.36,2.6,8.19,1.33,11.94-2.41,4.82-4.83,5.27-10.74,1.14-14.87l-3.48-3.49c.69,3.88-1.34,8.83-5.16,12.64-9.39,9.39-21.27,8.56-30.66-.83s-10.29-21.34-1.09-30.54c3.95-3.94,8.77-5.72,12.77-5.27l-3.24-3.23ZM408,323.67c-5.41-5.4-12.14-5.65-17.09-.71s-4.63,11.62.77,17,12.05,5.58,17,.69S413.35,329,408,323.67Z"/><path class="cls-2" d="M454.68,282.6l-23.75,23.75c5.52,4.13,11.49,3.87,16.06-.7,3.75-3.75,4.64-8.19,2.36-12.13l9.52-5.45c4.24,7.8,2.22,16.95-5.27,24.44-10.61,10.61-24.45,8.06-32.77-.26s-11.3-21.71-.7-32.31c10.8-10.8,24.06-8.07,31.5-.63C452.77,280.45,454.1,281.9,454.68,282.6Zm-14.29,2.6c-4.2-3.43-9.53-3.8-14.16.83-3.94,3.94-4.38,9.08-1,14.29Z"/><path class="cls-2" d="M488.37,277.73c-6.47,6.48-14.79,7.81-22.29.31l-14.79-14.79-5.39,5.4-6.73-6.73,5.39-5.4-9.39-9.39,8-8,9.4,9.4,8.07-8.07,6.73,6.73-8.07,8.06,14,14c3.05,3,6.36,3,8.84.57a12.12,12.12,0,0,0,3-4.52l7.56,6.42A21.14,21.14,0,0,1,488.37,277.73Z"/><path class="cls-2" d="M453.76,221.42l8-8,17.91,17.91c-1.4-5.59.25-11.18,4.69-15.62,7.18-7.18,16.52-7.37,23.5-.38l20.95,20.94-8,8-19-19c-3.93-3.93-8.82-4-12.75-.06-5,5-3.5,12,3.74,19.24l13.9,13.9-8,8Z"/><path class="cls-2" d="M551.28,186l-23.76,23.75c5.53,4.12,11.5,3.86,16.07-.71,3.74-3.75,4.63-8.18,2.35-12.12l9.52-5.46c4.25,7.8,2.22,17-5.27,24.44-10.6,10.61-24.45,8.06-32.76-.26s-11.3-21.71-.7-32.31c10.79-10.8,24.06-8.06,31.49-.63C549.36,183.85,550.7,185.31,551.28,186Zm-14.3,2.6c-4.19-3.43-9.52-3.81-14.16.83-3.93,3.93-4.37,9.08-1,14.28Z"/><path class="cls-2" d="M561.48,153.58c-4.51,4.51-4.83,12.31,4.69,21.83l11.75,11.75-8,8-32-32,8-8,5.84,5.84a15.85,15.85,0,0,1,3.3-16,16.74,16.74,0,0,1,4-3l7.23,8.26A14.78,14.78,0,0,0,561.48,153.58Z"/></svg>