<svg id="Layer_1" data-name="Layer 1" xmlns="http://www.w3.org/2000/svg" viewBox="0 0 770.36 122.65"><defs><style>.cls-1{fill:#ff0058;}</style></defs><path class="cls-1" d="M694.11,42.71h.25l4.67-40h31.36l-13,118.07H680.71l-5.91-40h-.24l-5.91,40H632L619,2.74h31.36l4.67,40h.25l4.92-40h29Zm-111.05-4.3c0-3.45-1.6-6.15-4.92-6.15s-4.92,2.7-4.92,6.15V85.14c0,3.44,1.6,6.15,4.92,6.15s4.92-2.71,4.92-6.15ZM578.14.9c32.59,0,40,24.22,40,60.87,0,36.28-7.13,60.88-40,60.88-32.59,0-40-24.23-40-60.88,0-36.28,7.13-60.87,40-60.87M481.6,120.81v-40h.24l11.07,40H532V2.74H501.27v40H501L490,2.74H450.85V120.81ZM365.13,47V32.26h3.2c4.68,0,6,1.6,6,7.38,0,5.41-1,7.38-6,7.38Zm28.05,14.26c10-6,14.14-15.37,14.14-26.69,0-21.52-13-31.85-38.13-31.85h-34.8V120.81h30.74V76.53h4.43c3.08,0,4.8,1.23,4.8,6.4v37.88h33v-41c0-11.19-4.8-16.11-14.14-18.32Zm-65.8,59.53V91.29H301.55V80.84h23.37V42.71H301.55V32.26h25.83V2.74H270.81V120.81ZM230,42.71h.24l4.68-40h31.36l-13,118.07H216.57l-5.9-40h-.25l-5.9,40H167.87l-13-118.07H186.2l4.67,40h.25l4.92-40h29Zm-111.06-4.3c0-3.45-1.59-6.15-4.91-6.15s-4.92,2.7-4.92,6.15V85.14c0,3.44,1.59,6.15,4.92,6.15s4.91-2.71,4.91-6.15ZM114,.9c32.59,0,40,24.22,40,60.87,0,36.28-7.13,60.88-40,60.88-32.6,0-40-24.23-40-60.88C74,25.49,81.17.9,114,.9M33.94,50.7c4.68,0,6-1.72,6-7V39.27c0-5.29-1.35-7-6-7H30.75V50.7ZM30.75,80.22v40.59H0V2.74H36c24,0,35.05,13.53,35.05,38.74S60,80.22,36,80.22Z"/><path d="M747.61,98.28a13.28,13.28,0,0,1,4.8-.79q3.2.24,6,3.66a11.06,11.06,0,0,1,2.8,8.35q-.65,8.85-7.69,11.94a10.57,10.57,0,0,1-4.62,1,11.68,11.68,0,0,1-3.7-1.22,13.73,13.73,0,0,1-5.12-5.11,11.38,11.38,0,0,1-2-6.77c.12-1.63,1.32-3.76,3.59-6.37S745.93,98.79,747.61,98.28Zm8.73-96.35A6.26,6.26,0,0,1,761.21,0a8.51,8.51,0,0,1,5.65,3.06,14.21,14.21,0,0,1,3.47,7.07,44.76,44.76,0,0,1-.23,5.67q-.92,12.62-4,36t-4.43,25.73q-3.09,5.83-9.49,5.37a7.87,7.87,0,0,1-3.52-1A10,10,0,0,1,744,77.28q-1.14-2.64-.61-9.8.33-4.53,3.14-25,3.23-23.43,4.87-30.42T756.34,1.93Z"/></svg>