<?xml version="1.0" encoding="UTF-8"?>
<svg width="202px" height="202px" viewBox="0 0 202 202" version="1.1" xmlns="http://www.w3.org/2000/svg" xmlns:xlink="http://www.w3.org/1999/xlink">
    <title>searchicon</title>
    <g id="Page-1" stroke="none" stroke-width="1" fill="none" fill-rule="evenodd">
        <g id="searchicon" transform="translate(0.199000, 0.197000)" fill="#04001F" fill-rule="nonzero">
            <path d="M201.601,190.403 L190.402,201.602 L132.371,144.25 C118.406,155.598 100.598,162.402 81.199,162.402 C36.355,162.402 0,126.047 0,81.199 C0,36.355 36.355,0 81.199,0 C126.047,0 162.402,36.355 162.402,81.199 C162.402,100.597 155.5973,118.406 144.25,132.371 L201.601,190.403 Z M81.201,145.602 C116.771,145.602 145.603,116.77 145.603,81.2 C145.603,45.634 116.771,16.802 81.201,16.802 C45.635,16.802 16.803,45.634 16.803,81.2 C16.803,116.77 45.635,145.602 81.201,145.602 Z" id="Shape"></path>
        </g>
    </g>
</svg>