<?xml version="1.0" encoding="utf-8"?>
<!-- Generator: Adobe Illustrator 26.0.0, SVG Export Plug-In . SVG Version: 6.00 Build 0)  -->
<svg version="1.1" id="Layer_1" xmlns="http://www.w3.org/2000/svg" xmlns:xlink="http://www.w3.org/1999/xlink" x="0px" y="0px"
	 viewBox="0 0 72 72" style="enable-background:new 0 0 72 72;" xml:space="preserve">
<style type="text/css">
	.st0{fill-rule:evenodd;clip-rule:evenodd;fill:#FCFC8F;}
	.st1{fill:#FCFC8F;}
</style>
<g id="rI5iuT.tif">
	<g>
		<path class="st1" d="M25.6,48.1c-2.7-0.1-5-1-6.9-2.7c-1.5-1.3-2.5-2.9-3.2-4.8c1.6,0.3,3.2,0.2,4.8-0.2c-2.5-0.6-4.6-1.8-6.2-3.8
			c-1.6-2-2.4-4.3-2.4-6.9c0.8,0.4,1.5,0.7,2.3,1c0.8,0.2,1.6,0.4,2.5,0.4c-2.3-1.7-3.9-3.8-4.5-6.6c-0.6-2.8-0.2-5.4,1.2-7.8
			c5.9,6.9,13.3,10.7,22.3,11.3c-0.1-0.3-0.1-0.6-0.2-0.9c-0.1-0.8-0.1-1.7-0.1-2.6c0.1-1.1,0.4-2.2,0.8-3.2
			c0.6-1.5,1.6-2.8,2.8-3.9c1.4-1.2,3-2,4.8-2.5c1.1-0.3,2.2-0.3,3.4-0.2c1.8,0.2,3.5,0.8,5,1.8c0.7,0.4,1.3,0.9,1.8,1.5
			c0.1,0.1,0.1,0.1,0.3,0.1c1.4-0.3,2.8-0.7,4.1-1.3c0.8-0.4,1.7-0.8,2.5-1.2c0,0,0.1,0,0.2-0.1c-0.9,2.6-2.4,4.5-4.7,5.9
			c2.1-0.2,4.1-0.8,6.1-1.6c-0.2,0.3-0.4,0.5-0.6,0.8c-0.8,1.1-1.7,2.1-2.7,3c-0.6,0.6-1.3,1.1-2,1.7C57,25.2,57,25.3,57,25.4
			c0,0.8,0,1.7,0,2.5c0,0.5-0.1,1.1-0.1,1.6c-0.1,0.8-0.2,1.6-0.3,2.4c-0.2,1.5-0.6,3-1.1,4.4c-0.5,1.6-1.2,3.1-1.9,4.6
			c-0.9,1.7-1.9,3.3-3,4.8c-1.1,1.4-2.3,2.8-3.6,4c-2,1.8-4.2,3.4-6.7,4.6c-2.1,1.1-4.4,1.9-6.7,2.4c-1,0.2-2,0.4-3,0.5
			c-1.7,0.2-3.4,0.3-5.2,0.2c-0.9,0-1.8-0.1-2.6-0.2c-1.7-0.2-3.3-0.5-4.9-1c-2-0.6-3.9-1.3-5.7-2.3c-0.8-0.4-1.5-0.8-2.2-1.3
			c0,0,0,0-0.1-0.1c2.9,0.3,5.7,0.1,8.4-0.7C20.8,51.1,23.3,49.9,25.6,48.1z"/>
	</g>
</g>
</svg>
