<?xml version="1.0" encoding="utf-8"?>
<!-- Generator: Adobe Illustrator 26.0.0, SVG Export Plug-In . SVG Version: 6.00 Build 0)  -->
<svg version="1.1" id="Layer_1" xmlns="http://www.w3.org/2000/svg" xmlns:xlink="http://www.w3.org/1999/xlink" x="0px" y="0px"
	 viewBox="0 0 72 72" style="enable-background:new 0 0 72 72;" xml:space="preserve">
<style type="text/css">
	.st0{fill-rule:evenodd;clip-rule:evenodd;fill:#FCFC8F;}
	.st1{fill:#FCFC8F;}
</style>
<path class="st0" d="M15.9,15.9c-2.7,0-5.2,1.1-7.1,2.9C7,20.8,5.9,23.3,5.9,26V46c0,2.7,1.1,5.2,2.9,7.1c1.9,1.9,4.4,2.9,7.1,2.9
	h40.1c2.7,0,5.2-1.1,7.1-2.9c1.9-1.9,2.9-4.4,2.9-7.1V26c0-2.7-1.1-5.2-2.9-7.1c-1.9-1.9-4.4-2.9-7.1-2.9L15.9,15.9L15.9,15.9z
	 M28.2,38.8L13.7,51.6c0.7,0.3,1.5,0.4,2.2,0.4h40.1c0.8,0,1.5-0.1,2.2-0.4L43.8,38.8l-6.4,5.7c-0.8,0.7-1.9,0.7-2.7,0L28.2,38.8z
	 M10.7,23.1l14.6,13L10.7,48.9c-0.5-0.9-0.7-1.9-0.7-2.9V26C9.9,24.9,10.2,23.9,10.7,23.1L10.7,23.1z M61.3,23.1
	c0.5,0.9,0.7,1.9,0.7,2.9V46c0,1-0.3,2-0.7,2.9L46.8,36.1L61.3,23.1L61.3,23.1z M58.3,20.4L36,40.3L13.7,20.4
	c0.7-0.3,1.5-0.4,2.2-0.4h40.1C56.8,20,57.6,20.1,58.3,20.4L58.3,20.4z"/>
</svg>
