<?xml version="1.0" encoding="utf-8"?>
<!-- Generator: Adobe Illustrator 26.0.0, SVG Export Plug-In . SVG Version: 6.00 Build 0)  -->
<svg version="1.1" id="Layer_1" xmlns="http://www.w3.org/2000/svg" xmlns:xlink="http://www.w3.org/1999/xlink" x="0px" y="0px"
	 viewBox="0 0 72 72" style="enable-background:new 0 0 72 72;" xml:space="preserve">
<style type="text/css">
	.st0{fill-rule:evenodd;clip-rule:evenodd;fill:#FCFC8F;}
	.st1{fill:#FCFC8F;}
</style>
<g>
	<path class="st0" d="M61.9,35.3c0,13.9-11.4,25.2-25.4,25.2c-4.5,0-8.6-1.1-12.3-3.1l-14.1,4.5l4.6-13.5c-2.3-3.8-3.6-8.3-3.6-13
		c0-13.9,11.4-25.2,25.4-25.2C50.5,10.1,61.9,21.4,61.9,35.3L61.9,35.3z M36.5,14.1c-11.8,0-21.4,9.5-21.4,21.2
		c0,4.6,1.5,8.9,4.1,12.4l-2.7,7.9l8.2-2.6c3.4,2.2,7.4,3.5,11.8,3.5c11.8,0,21.4-9.5,21.4-21.2C57.8,23.6,48.3,14.1,36.5,14.1
		L36.5,14.1z M49.3,41.1c-0.2-0.3-0.6-0.4-1.2-0.7c-0.6-0.3-3.7-1.8-4.3-2c-0.6-0.2-1-0.3-1.4,0.3c-0.4,0.6-1.6,2-2,2.4
		c-0.4,0.4-0.7,0.5-1.3,0.2c-0.6-0.3-2.6-1-5-3.1c-1.9-1.6-3.1-3.7-3.5-4.3c-0.4-0.6,0-1,0.3-1.3c0.3-0.3,0.6-0.7,0.9-1.1
		c0.3-0.4,0.4-0.6,0.6-1c0.2-0.4,0.1-0.8-0.1-1.1c-0.2-0.3-1.4-3.4-1.9-4.6c-0.5-1.2-1-1-1.4-1c-0.4,0-0.8-0.1-1.2-0.1
		c-0.4,0-1.1,0.2-1.7,0.8c-0.6,0.6-2.2,2.1-2.2,5.2c0,3,2.2,6,2.5,6.4c0.3,0.4,4.3,6.9,10.6,9.3c6.3,2.5,6.3,1.6,7.5,1.5
		c1.1-0.1,3.7-1.5,4.2-2.9C49.5,42.6,49.5,41.4,49.3,41.1L49.3,41.1z M49.3,41.1"/>
</g>
</svg>
